<svg xmlns="http://www.w3.org/2000/svg" viewBox="0 0 266 97.84"><title>Unity logo</title><path d="M488.46,516.28V488.56h11.62v28.13c0,4.69,2.45,7.75,8.15,7.75,5.3,0,7.95-3.26,7.95-7.95V488.56H527.8v27.72c0,10.8-6.52,17.33-19.57,17.33C495,533.81,488.46,527.29,488.46,516.28Zm44.64-17.12h10.4v4.69h.2a11.55,11.55,0,0,1,10.4-5.5c7.34,0,11.62,5.3,11.62,12.84V533h-10.8V513.22c0-3.47-1.83-5.91-5.3-5.91s-5.91,3.06-5.91,7.13V533h-10.8V499.16Zm38.12-13.25H582v8.76h-10.8Zm0,13.25H582v33.63h-10.8ZM590.37,524v-16.1h-4.48v-8.76h4.48v-10.6h10.4v10.6h6.11v8.76h-6.11v13.86c0,2.65,1.43,3.26,3.67,3.26h2.45v7.75a28.59,28.59,0,0,1-5.91.61C594.86,533.4,590.37,531.36,590.37,524Zm23.24,11.62h3.67c3.06,0,4.48-1.22,4.48-3.47,0-1.43-.61-3.47-2-6.93l-10-25.89h11.21l4.48,14.27c1,3.26,2,7.75,2,7.75h.2s1-4.48,2-7.75l4.48-14.27H645l-11.62,34c-2.65,7.95-5.91,10.6-12.64,10.6h-6.93Z" transform="translate(-379 -463.08)"/><path d="M465.63,531.57V485.91l-39.54-22.83v17.53l15.49,9c.61.41.61,1.22,0,1.43l-18.34,10.6a1.55,1.55,0,0,1-1.63,0L403.26,491a.78.78,0,0,1,0-1.43l15.49-9V463.08L379,485.91v45.66l15.08-8.76V504.87a1,1,0,0,1,1.22-.82l18.34,10.6a1.54,1.54,0,0,1,.82,1.43v21.2a1,1,0,0,1-1.22.82l-15.49-9-15.08,8.76,39.54,23,39.54-22.83-15.08-8.76-15.49,9c-.61.41-1.22,0-1.22-.82v-21.2a1.72,1.72,0,0,1,.82-1.43l18.34-10.6c.61-.41,1.22,0,1.22.82V523Z" transform="translate(-379 -463.08)" style="fill:#4c4c4c"/><path d="M422.21,560.92l39.54-22.83-15.08-8.76-15.49,9c-.61.41-1.22,0-1.22-.82v-21.2a1.72,1.72,0,0,1,.82-1.43l18.34-10.6c.61-.41,1.22,0,1.22.82V523l15.08,8.76V485.91L422.21,511Z" transform="translate(-379 -463.08)"/><path d="M426.09,463.08v17.53l15.49,9c.61.41.61,1.22,0,1.43l-18.34,10.6a1.55,1.55,0,0,1-1.63,0L403.26,491a.78.78,0,0,1,0-1.43l15.49-9V463.08L379,485.91,422.21,511l43.21-25.07Z" transform="translate(-379 -463.08)" style="fill:gray"/><path d="M413.45,538.29l-15.49-9-15.08,8.76,39.54,22.83V511L379,485.91v45.66l15.08-8.76V504.87a1,1,0,0,1,1.22-.82l18.34,10.6a1.54,1.54,0,0,1,.82,1.43v21.2C414.67,538.09,414.06,538.7,413.45,538.29Z" transform="translate(-379 -463.08)" style="fill:#4c4c4c"/></svg>